# xmcd
#
# Track frame offsets:
#	150
#	19499
#	38906
#	60068
#	74313
#	92250
#	109966
#	125722
#	144940
#	163158
#	181741
#	201656
#
# Disc length: 2931 seconds
#
# Revision: 4
# Processed by: cddbd v1.5.2PL0 Copyright (c) Steve Scherf et al.
# Submitted via: EasyCDDAExtractor 12.0.4.1
#
DISCID=a60b710c
DTITLE=Various Artist - ใจติดดิน
DYEAR=2009
DGENRE=Country
TTITLE0=พีสะเดืด/พรากผู้เยา
TTITLE1=ไท ธนาวุฒิ/นางฟ้าในวงเหล้า
TTITLE2=แสน นากา/ยิ่งบ่อยยิ่งดี
TTITLE3=จั๊กจั่น วันวิสาส/พยากรอากาศวันนี้
TTITLE4=ไม้เมือง/เพลงนี้เพื่อเธอ
TTITLE5=ต๊ะ  กิตติศักดิ์/ยังรอที่หน้าร้านเก่า
TTITLE6=ไท  ธนาวุฒิ/เซ็ง
TTITLE7=เสถียร ทำมือ/ในนามของความห่วงใย
TTITLE8=พีสะเดิด/สาวเกาหลี
TTITLE9=โกไข่฿นายสน/เว้นไว้สักเบอร์
TTITLE10=แช่ม แช่มรัม/กุ้งแช่น้ำตา
TTITLE11=คนมอ/อายเกิบ
EXTD=
EXTT0=
EXTT1=
EXTT2=
EXTT3=
EXTT4=
EXTT5=
EXTT6=
EXTT7=
EXTT8=
EXTT9=
EXTT10=
EXTT11=
PLAYORDER=
